# xmcd CD database file
#
# Track frame offsets:
#	150
#	2853
#	19488
#	42047
#	80457
#	93668
#	129619
#	152245
#	169152
#	205158
#	221416
#
# Disc length: 3040 seconds
#
# Revision: 1
# Processed by: cddbd v1.5.2PL0 Copyright (c) Steve Scherf et al.
# Submitted via: CDex 1.70beta2
#
DISCID=910bde0b
DTITLE=Mango Gadzi - Ur Mama
DYEAR=2006
DGENRE=Jazz
TTITLE0=Intro
TTITLE1=Tzigarol
TTITLE2=No hay verano
TTITLE3=Le 15 Tonnes
TTITLE4=Malyria
TTITLE5=Khabilel
TTITLE6=Tzigarol - Chewing
TTITLE7=K'Valkad
TTITLE8=Lacrima De Lluvia
TTITLE9=Tzigarol - Andrei Stum Fei
TTITLE10=Ilahi
EXTD=YEAR: 2006
EXTT0=
EXTT1=
EXTT2=
EXTT3=
EXTT4=
EXTT5=
EXTT6=
EXTT7=
EXTT8=
EXTT9=
EXTT10=
PLAYORDER=
